<?xml version="1.0" standalone="no"?>
<!DOCTYPE svg PUBLIC "-//W3C//DTD SVG 20010904//EN"
 "http://www.w3.org/TR/2001/REC-SVG-20010904/DTD/svg10.dtd">
<svg version="1.0" xmlns="http://www.w3.org/2000/svg"
 width="512.000000pt" height="512.000000pt" viewBox="0 0 512.000000 512.000000"
 preserveAspectRatio="xMidYMid meet">
<metadata>
Created by potrace 1.11, written by Peter Selinger 2001-2013
</metadata>
<g transform="translate(0.000000,512.000000) scale(0.100000,-0.100000)"
fill="#000000" stroke="none">
<path d="M2548 4645 c-15 -16 -42 -28 -78 -35 -37 -7 -62 -18 -75 -34 -11 -13
-32 -26 -47 -30 -15 -3 -30 -15 -33 -26 -3 -11 -15 -20 -25 -20 -11 0 -22 -11
-29 -30 -6 -20 -17 -30 -30 -30 -14 0 -21 -8 -23 -27 -2 -17 -12 -32 -25 -38
-13 -5 -25 -22 -29 -39 -3 -16 -24 -45 -45 -64 -22 -20 -39 -42 -39 -49 0 -12
-30 -14 -172 -11 -244 4 -381 -14 -391 -52 -3 -14 -14 -20 -31 -20 -25 0 -26
-2 -26 -61 0 -57 2 -64 33 -90 17 -16 35 -29 39 -29 4 0 15 -8 25 -19 10 -10
39 -22 65 -25 33 -5 53 -14 63 -29 14 -20 27 -23 123 -27 l107 -5 -1 -79 c0
-64 -3 -81 -18 -92 -14 -10 -22 -39 -32 -120 -9 -63 -20 -115 -29 -124 -11
-12 -18 -59 -25 -164 -8 -115 -15 -157 -32 -194 -19 -42 -22 -71 -29 -292 -7
-235 -12 -280 -29 -280 -24 0 -29 -138 -35 -835 -3 -409 -2 -753 3 -770 6 -20
15 -30 28 -30 18 0 19 16 26 570 8 570 14 695 42 835 10 47 15 134 16 235 0
189 15 386 29 394 6 4 15 58 21 121 19 204 30 274 42 281 9 6 15 47 19 123 6
103 9 118 31 144 20 24 26 45 32 113 6 68 11 89 30 109 17 19 25 42 30 90 4
47 11 69 26 80 11 9 22 35 27 65 7 40 13 51 30 53 12 2 29 14 37 28 9 13 23
24 30 24 19 0 26 22 20 62 -3 18 -1 51 3 73 7 30 14 41 33 45 18 4 26 14 28
33 2 19 11 29 28 33 13 4 24 14 24 23 0 21 19 41 40 41 8 0 20 10 25 22 6 12
20 25 32 28 13 3 33 14 45 24 30 26 83 35 209 36 136 0 168 -6 180 -37 5 -13
20 -28 33 -33 19 -7 26 -19 31 -54 6 -35 12 -46 26 -46 26 0 33 -16 40 -94 5
-55 11 -72 29 -86 20 -15 23 -29 29 -134 5 -77 12 -120 20 -125 17 -11 28
-110 42 -376 6 -121 15 -228 20 -238 6 -9 14 -63 19 -120 10 -112 13 -1588 4
-1624 -4 -13 -12 -23 -20 -23 -20 0 -23 -9 -34 -131 -6 -62 -17 -127 -25 -143
-8 -16 -15 -49 -15 -72 0 -46 3 -49 70 -56 25 -3 25 -4 28 -113 2 -97 0 -112
-18 -137 -11 -15 -25 -51 -31 -80 -14 -65 -25 -88 -44 -88 -9 0 -15 -10 -15
-25 0 -18 -7 -28 -25 -35 -37 -14 -31 -37 11 -44 37 -8 64 5 64 30 0 8 11 19
24 24 23 8 46 58 46 97 0 7 8 17 19 22 15 9 19 28 25 138 4 70 12 149 17 175
12 55 1 85 -36 94 -19 5 -25 14 -31 49 -7 49 -1 65 25 65 16 0 18 18 24 217 9
274 8 1282 -2 1716 -5 244 -10 330 -19 336 -15 9 -31 129 -32 234 0 98 -19
220 -36 230 -7 4 -16 29 -19 55 -17 131 -27 174 -45 192 -14 14 -20 34 -20 65
0 38 -4 47 -24 56 -17 8 -28 25 -35 55 -8 31 -16 44 -29 44 -22 0 -42 19 -42
40 0 12 -14 19 -47 26 -36 7 -49 14 -52 29 -5 31 -19 35 -123 35 -91 0 -99 -2
-120 -25z m-534 -508 c25 -18 14 -93 -15 -102 -11 -4 -19 -15 -19 -28 0 -13
-7 -33 -16 -45 -13 -20 -22 -22 -57 -17 -23 3 -93 10 -156 15 -92 8 -119 13
-135 29 -12 11 -31 29 -43 41 -29 25 -29 38 0 74 30 37 65 43 263 45 118 1
165 -2 178 -12z"/>
<path d="M4235 3585 c-26 -15 -67 -27 -116 -33 -54 -7 -83 -16 -96 -29 -11
-11 -41 -23 -69 -27 -33 -4 -54 -13 -65 -27 -13 -17 -30 -22 -90 -27 -59 -4
-81 -10 -108 -31 -24 -18 -51 -27 -90 -31 -42 -4 -57 -9 -59 -22 -6 -31 32
-39 143 -32 83 6 109 11 125 26 24 23 71 38 116 38 21 0 41 10 61 29 23 22 44
30 89 36 32 4 63 13 69 21 11 16 98 31 210 37 110 6 356 -18 369 -35 7 -10 47
-19 116 -27 58 -6 107 -16 108 -21 10 -28 36 -40 87 -40 29 0 60 -3 69 -6 13
-5 16 1 16 30 0 32 -3 36 -25 36 -13 0 -28 6 -32 13 -10 17 -80 37 -126 37
-41 0 -88 16 -99 33 -4 6 -45 14 -95 18 -60 4 -108 15 -152 33 -58 23 -77 26
-190 26 -115 -1 -130 -3 -166 -25z"/>
<path d="M0 3506 l0 -46 108 0 c59 0 172 -5 251 -10 138 -9 153 -12 164 -43 1
-4 48 -12 104 -18 83 -7 110 -14 139 -34 29 -20 49 -25 96 -25 59 0 144 -16
163 -31 11 -8 92 -23 215 -40 47 -6 91 -16 99 -22 9 -8 59 -12 140 -12 l126 0
-2 39 c-2 22 -5 41 -7 43 -2 3 -85 7 -183 10 -179 5 -234 13 -265 40 -10 9
-53 17 -121 22 -93 7 -110 11 -141 34 -26 20 -46 27 -83 27 -63 1 -134 15
-142 29 -4 6 -42 15 -84 21 -42 5 -112 15 -154 20 -42 6 -80 16 -84 22 -5 8
-63 13 -173 16 l-166 5 0 -47z"/>
<path d="M2851 2717 c-5 -13 -12 -54 -16 -92 -4 -39 -14 -87 -21 -109 -8 -21
-14 -73 -14 -115 0 -116 -18 -250 -39 -290 -14 -27 -22 -75 -30 -186 -9 -116
-16 -156 -31 -183 -16 -26 -20 -51 -20 -117 0 -46 -3 -90 -6 -99 -10 -27 -85
-15 -106 18 -4 6 -22 16 -40 22 -25 8 -34 17 -36 37 -2 19 -9 27 -23 27 -14 0
-25 12 -35 36 -8 20 -23 45 -33 55 -10 11 -24 44 -31 73 -9 36 -19 56 -30 59
-24 6 -35 99 -34 268 1 133 14 193 44 209 10 6 20 20 22 32 2 13 13 27 26 33
12 5 22 17 22 26 0 20 18 35 45 41 14 2 21 14 26 43 10 58 -19 73 -63 33 -13
-13 -46 -40 -71 -62 -31 -25 -47 -46 -47 -61 0 -13 -7 -25 -18 -27 -13 -4 -20
-24 -30 -89 -8 -46 -23 -101 -34 -121 -17 -30 -20 -48 -16 -106 3 -41 14 -88
26 -113 11 -24 25 -76 30 -116 7 -50 16 -77 31 -92 12 -12 21 -28 21 -36 0 -8
14 -30 31 -47 17 -18 33 -45 36 -61 4 -18 15 -32 29 -38 13 -4 24 -16 24 -24
0 -9 13 -21 29 -26 16 -6 31 -18 34 -28 3 -12 18 -20 45 -25 39 -6 66 -23 74
-47 5 -16 146 -24 181 -10 36 14 34 25 -10 48 -46 24 -61 67 -35 96 14 16 19
55 28 224 7 131 15 207 22 212 13 7 26 95 41 260 6 64 15 109 24 120 11 12 16
51 17 161 4 199 3 210 -15 210 -9 0 -19 -10 -24 -23z"/>
<path d="M4480 2509 c-211 -7 -270 -15 -286 -37 -8 -11 -36 -17 -93 -21 -71
-6 -84 -10 -106 -33 -20 -21 -38 -28 -85 -34 -45 -5 -61 -11 -65 -24 -6 -19
-53 -40 -90 -40 -13 0 -25 -7 -28 -15 -4 -8 -23 -21 -43 -30 -38 -16 -119 -94
-108 -104 3 -3 27 -6 53 -6 34 0 53 6 71 23 13 12 34 22 47 22 13 0 29 10 39
24 10 17 38 32 82 46 37 12 70 28 74 35 4 7 35 15 69 19 38 5 75 16 98 31 27
17 57 25 121 30 47 4 87 10 90 14 31 39 258 57 525 42 167 -10 225 -20 225
-41 0 -5 11 -10 25 -10 23 0 25 3 25 49 l0 49 -102 6 c-187 10 -351 12 -538 5z"/>
<path d="M998 2345 c-20 -7 -85 -17 -143 -21 -86 -5 -108 -10 -115 -24 -7 -13
-27 -20 -72 -25 -71 -7 -128 -23 -128 -35 0 -12 -47 -27 -127 -40 -51 -8 -73
-16 -73 -26 0 -8 -6 -14 -12 -14 -109 -4 -222 -20 -237 -34 -10 -9 -35 -20
-55 -23 -32 -5 -36 -9 -36 -34 0 -28 1 -29 56 -29 85 0 197 20 211 37 8 10 39
17 94 22 50 4 84 12 87 19 7 21 43 34 113 42 41 5 75 14 84 24 18 17 25 19
130 36 39 6 78 19 88 28 13 11 51 18 135 25 64 5 127 11 140 13 25 5 29 30 8
57 -16 21 -93 22 -148 2z"/>
<path d="M1747 794 c-4 -4 -7 -39 -7 -77 0 -73 21 -137 46 -137 8 0 14 -9 14
-20 0 -13 11 -24 33 -33 18 -8 41 -23 52 -33 14 -14 38 -20 98 -24 43 -3 84
-2 90 2 20 13 -7 42 -47 52 -21 4 -40 15 -43 22 -3 8 -13 14 -22 14 -35 0 -92
22 -98 38 -4 9 -20 35 -37 56 -22 29 -32 54 -36 90 -3 35 -10 52 -20 54 -9 1
-19 0 -23 -4z"/>
<path d="M0 310 l0 -30 2560 0 2560 0 0 30 0 30 -2560 0 -2560 0 0 -30z"/>
</g>
</svg>
